# xmcd CD database file
#
# Track frame offsets:
#	150
#	12965
#	24740
#	35947
#	50227
#	63947
#	81125
#	93020
#	108875
#	122170
#	132997
#	144095
#	156330
#	169897
#	185127
#	199657
#	212602
#	225987
#	242402
#	256390
#
# Disc length: 3574 seconds
#
# Revision: 0
# Processed by: cddbd v1.5.2PL0 Copyright (c) Steve Scherf et al.
# Submitted via: CDex 1.51
#
DISCID=120df414
DTITLE=lorito e loreto  - 20 pagodes de sussessos 
DYEAR=1900
DGENRE=caipira
TTITLE0=quem gosta de vazer rolo 
TTITLE1=novo rei 
TTITLE2=rei dos animais 
TTITLE3=o homem e a natureza 
TTITLE4=violeiro franco 
TTITLE5=viola nas alturas 
TTITLE6=coisas difíseis 
TTITLE7=as origens da viola 
TTITLE8=viola minha viola 
TTITLE9=pagode do sobe-sobe 
TTITLE10=pagode do sussesso 
TTITLE11=pagodão de raça 
TTITLE12=pega-pega 
TTITLE13=quem não canta chora 
TTITLE14=violeiro moderno 
TTITLE15=pedasso da minha vida 
TTITLE16=sussesso dobrado 
TTITLE17=estinção ecológica 
TTITLE18=amigo invejoso 
TTITLE19=meu carro e meu pagode 
EXTD=
EXTT0=
EXTT1=
EXTT2=
EXTT3=
EXTT4=
EXTT5=
EXTT6=
EXTT7=
EXTT8=
EXTT9=
EXTT10=
EXTT11=
EXTT12=
EXTT13=
EXTT14=
EXTT15=
EXTT16=
EXTT17=
EXTT18=
EXTT19=
PLAYORDER=
